<?xml version="1.0" standalone="no"?>
<!DOCTYPE svg PUBLIC "-//W3C//DTD SVG 20010904//EN"
 "http://www.w3.org/TR/2001/REC-SVG-20010904/DTD/svg10.dtd">
<svg version="1.0" xmlns="http://www.w3.org/2000/svg"
 width="256.000000pt" height="256.000000pt" viewBox="0 0 256.000000 256.000000"
 preserveAspectRatio="xMidYMid meet">

<g transform="translate(0.000000,256.000000) scale(0.100000,-0.100000)"
fill="#000000" stroke="none">
<path id="drawingPath" id="drawingPath" d="M0 2525 c0 -19 4 -44 9 -57 5 -13 14 -41 21 -63 7 -22 23 -56 35 -75
13 -19 27 -48 31 -65 4 -16 12 -41 19 -55 7 -14 17 -38 21 -55 8 -26 15 -31
54 -36 25 -4 59 -12 75 -19 25 -10 47 -10 110 -1 152 22 168 26 175 41 20 41
31 94 25 123 -5 24 -4 28 4 17 15 -21 13 -54 -8 -132 -9 -38 -14 -68 -10 -68
4 0 -3 -19 -16 -42 -14 -24 -25 -56 -26 -73 0 -19 -3 -25 -7 -15 -9 20 -59 23
-91 5 -41 -21 -201 -47 -249 -39 -28 4 -42 3 -42 -5 0 -6 -8 -11 -18 -11 -10
0 -23 -5 -28 -10 -7 -7 -22 -6 -47 5 l-37 15 0 -30 c0 -22 6 -33 23 -41 l22
-10 -22 5 c-13 2 -23 0 -23 -4 0 -13 63 -23 107 -17 21 2 94 16 163 30 69 14
158 31 198 38 l72 12 0 57 c0 45 6 65 29 102 47 74 96 88 150 42 17 -14 31
-21 31 -16 0 5 17 12 39 16 26 4 44 14 55 31 20 30 36 33 31 5 -3 -16 2 -20
23 -21 24 -1 23 -3 -10 -12 -21 -6 -52 -22 -69 -36 l-31 -26 31 -59 c17 -32
31 -63 31 -68 0 -6 20 -43 45 -83 45 -71 45 -73 34 -116 -11 -40 -9 -50 16
-109 68 -163 68 -163 51 -204 -15 -35 -18 -38 -48 -33 -109 19 -114 23 -170
142 -27 59 -30 74 -25 128 5 57 4 60 -8 37 -8 -14 -14 -38 -15 -53 0 -43 29
-136 62 -193 24 -43 27 -56 18 -78 -17 -45 -12 -70 26 -121 68 -95 214 -308
214 -313 0 -13 -36 29 -75 87 -25 37 -88 110 -140 164 -86 87 -112 119 -85
102 5 -3 7 0 4 9 -9 24 -37 29 -51 10 -11 -15 -9 -22 14 -47 31 -33 -84 49
-127 91 -13 13 -33 28 -45 33 -26 13 55 -62 120 -111 131 -99 298 -296 428
-509 52 -85 68 -82 80 16 4 41 -4 42 -26 3 -21 -35 -32 -38 -47 -9 -13 24 -16
21 35 47 44 21 64 18 116 -19 36 -26 90 -27 127 -4 15 10 86 60 158 111 124
89 134 98 182 178 29 47 52 89 52 93 0 5 -9 27 -20 48 -16 30 -19 49 -14 75 4
19 6 44 6 54 -1 18 0 18 13 -1 15 -22 9 -67 -8 -56 -15 9 -1 -52 20 -83 16
-25 17 -25 30 -8 27 37 25 59 -12 121 l-36 61 21 41 c20 41 38 57 26 24 -5
-13 0 -11 20 7 15 14 24 20 21 14 -4 -7 0 -17 8 -24 12 -10 18 -10 30 0 17 14
20 50 5 50 -5 0 -10 -8 -10 -17 0 -15 -2 -16 -9 -3 -6 8 -7 18 -5 22 10 16
-10 7 -33 -14 -14 -13 -23 -17 -23 -9 0 7 -8 3 -19 -10 l-18 -23 -7 22 c-4 12
-12 22 -17 22 -6 0 -5 -8 1 -21 7 -12 8 -33 4 -52 -8 -30 -9 -28 -17 28 -11
73 -12 118 -3 170 7 47 2 37 -14 -23 -22 -85 -120 -163 -202 -161 l-43 1 53 8
c48 7 83 20 54 20 -24 0 -11 36 19 54 37 22 47 15 25 -19 -20 -30 -3 -34 18
-3 11 15 12 26 5 40 -6 11 -6 18 0 18 5 0 11 -5 13 -12 6 -17 28 0 28 21 0 33
-56 49 -185 52 l-119 4 -8 -25 c-6 -19 -7 -16 -4 15 1 22 6 49 10 60 5 14 3
14 -5 -2 -7 -13 -19 -23 -27 -23 -8 0 -78 32 -156 72 -84 43 -159 74 -186 77
l-45 6 -62 110 c-35 61 -63 118 -63 127 0 19 35 42 53 34 9 -3 8 -5 -1 -5 -7
-1 -10 -5 -7 -11 4 -6 -1 -7 -11 -3 -14 5 -15 3 -5 -15 6 -11 11 -33 11 -48 0
-15 7 -35 16 -45 15 -17 18 -17 33 -2 9 9 25 34 36 56 37 74 36 74 213 -22 71
-39 93 -46 62 -20 -13 11 -66 42 -117 67 -99 49 -106 58 -79 111 16 31 69 74
104 85 12 4 20 12 17 17 -6 9 13 13 53 9 13 -1 47 3 75 10 29 6 61 13 73 15
11 3 38 18 59 35 41 32 85 40 85 15 0 -9 -20 -35 -45 -59 -45 -42 -45 -43 -23
-54 23 -12 23 -12 -2 -7 -22 5 -23 5 -6 -6 25 -16 113 -3 144 22 17 13 29 16
37 9 6 -5 14 -7 18 -4 3 3 2 -10 -3 -30 -7 -33 -5 -38 31 -71 22 -19 42 -35
47 -36 50 -5 90 -11 102 -15 8 -3 42 -10 75 -15 33 -4 69 -10 80 -13 11 -2 23
-5 26 -5 3 -1 14 -19 24 -41 25 -56 16 -176 -23 -295 -17 -49 -30 -81 -31 -71
-1 21 -19 37 -75 67 -46 25 -89 20 -116 -13 -30 -36 -25 -62 15 -81 19 -9 35
-13 35 -9 0 4 16 8 36 10 34 2 94 -28 94 -47 0 -5 -23 -11 -51 -13 -27 -3 -56
-11 -62 -18 -10 -10 -8 -11 8 -5 11 5 42 11 69 14 44 5 50 9 57 35 5 16 19 52
32 80 14 28 29 62 35 76 10 24 11 24 11 3 1 -13 5 -23 11 -23 5 0 7 7 4 15 -9
24 32 19 50 -6 l14 -21 4 23 c2 17 13 27 37 34 42 12 80 61 87 112 l5 38 -20
-37 c-24 -43 -51 -54 -83 -36 -22 12 -21 13 21 18 41 5 72 30 37 30 -30 0 -16
18 32 40 113 53 153 109 148 208 -2 46 -11 78 -37 127 -34 68 -106 145 -134
145 -8 0 -14 3 -14 8 5 32 -4 33 -33 6 -31 -28 -32 -28 -9 -2 16 18 25 41 26
65 l1 38 84 29 c98 33 256 46 246 21 -3 -8 -1 -17 5 -20 10 -7 39 18 39 34 0
8 -376 11 -1280 11 l-1280 0 0 -35z m607 -167 c-3 -7 -5 -2 -5 12 0 14 2 19 5
13 2 -7 2 -19 0 -25z m-58 -9 c35 -12 44 -34 9 -23 -44 13 -68 24 -68 29 0 8
25 6 59 -6z m921 -134 c-7 -8 -18 -15 -24 -15 -6 0 -2 7 8 15 25 19 32 19 16
0z m672 -47 c-8 -8 -9 -4 -5 13 4 13 8 18 11 10 2 -7 -1 -18 -6 -23z m-231
-105 c13 -15 12 -15 -9 -4 -16 9 -27 9 -40 1 -16 -11 -16 -11 0 -6 10 3 20 2
22 -3 6 -10 -20 -11 -59 -4 l-30 6 30 13 c41 18 70 17 86 -3z m454 -54 c-9
-17 -19 -29 -22 -26 -5 5 25 57 33 57 3 0 -3 -14 -11 -31z m-55 -33 c0 -2 -8
-10 -17 -17 -16 -13 -17 -12 -4 4 13 16 21 21 21 13z m-77 -63 c-7 -2 -21 -2
-30 0 -10 3 -4 5 12 5 17 0 24 -2 18 -5z m-1725 -10 c-10 -2 -26 -2 -35 0 -10
3 -2 5 17 5 19 0 27 -2 18 -5z m-61 -9 c-3 -3 -12 -4 -19 -1 -8 3 -5 6 6 6 11
1 17 -2 13 -5z m-67 -14 c-14 -4 -38 -8 -55 -8 -29 1 -29 1 5 8 50 11 83 11
50 0z m-97 -17 c-7 -2 -21 -2 -30 0 -10 3 -4 5 12 5 17 0 24 -2 18 -5z m-56
-9 c-3 -3 -12 -4 -19 -1 -8 3 -5 6 6 6 11 1 17 -2 13 -5z m1948 -92 c-7 -8
-43 9 -48 23 -5 10 1 10 23 -3 16 -9 27 -18 25 -20z m-798 -244 c-3 -8 -6 -5
-6 6 -1 11 2 17 5 13 3 -3 4 -12 1 -19z"/>
<path id="drawingPath" id="drawingPath" d="M2213 2427 c4 -10 7 -25 7 -33 0 -8 5 -14 10 -14 16 0 11 36 -7 51
-15 12 -16 12 -10 -4z"/>
<path id="drawingPath" id="drawingPath" d="M2505 2343 c-27 -8 -58 -19 -67 -24 -10 -5 -26 -9 -36 -9 -28 0 -33
-10 -16 -35 14 -21 14 -24 -3 -29 -22 -7 107 2 147 11 28 5 30 8 30 54 0 27
-1 49 -2 48 -2 0 -25 -7 -53 -16z"/>
<path id="drawingPath" id="drawingPath" d="M2 2191 l3 -95 54 -18 c59 -21 73 -18 48 10 -10 10 -17 25 -17 33 -1
8 -21 48 -46 89 l-44 75 2 -94z"/>
<path id="drawingPath" id="drawingPath" d="M633 2090 c-29 -12 -63 -67 -62 -100 0 -23 1 -23 9 -5 5 11 9 16 9
11 1 -5 12 1 26 14 l26 24 -16 -38 c-23 -53 -14 -54 14 0 19 35 29 44 51 44
20 0 30 -8 43 -32 10 -22 16 -27 16 -15 1 26 -25 73 -51 91 -25 18 -33 19 -65
6z"/>
<path id="drawingPath" id="drawingPath" d="M6 2060 c5 -5 25 -12 44 -15 l35 -5 -30 14 c-35 18 -64 21 -49 6z"/>
<path id="drawingPath" id="drawingPath" d="M165 2060 c3 -5 17 -10 31 -10 14 0 22 4 19 10 -3 6 -17 10 -31 10
-14 0 -22 -4 -19 -10z"/>
<path id="drawingPath" id="drawingPath" d="M1348 2043 c-10 -2 -18 -9 -18 -14 0 -6 4 -8 9 -4 5 3 12 1 16 -5 3
-5 0 -10 -7 -10 -21 -1 12 -17 51 -25 19 -4 56 -22 82 -41 26 -18 49 -31 51
-28 3 2 13 -6 24 -18 l19 -23 -21 18 c-21 17 -22 17 -26 -7 -4 -20 0 -27 21
-35 25 -9 25 -9 -9 -11 -19 -1 -44 -5 -55 -9 -13 -6 -32 -2 -55 9 -19 9 -51
20 -70 23 -35 6 -35 6 -10 -8 14 -8 34 -14 45 -15 11 0 31 -7 44 -16 19 -14
29 -14 64 -5 52 15 97 -1 157 -55 37 -34 56 -36 28 -4 -7 8 -1 5 13 -8 27 -24
39 -21 39 11 0 11 -3 17 -7 14 -3 -4 -14 11 -24 34 -21 47 -185 214 -224 229
-26 10 -104 12 -137 3z"/>
<path id="drawingPath" id="drawingPath" d="M975 1989 c-4 -6 -5 -12 -2 -15 2 -3 7 2 10 11 7 17 1 20 -8 4z"/>
<path id="drawingPath" id="drawingPath" d="M552 1940 c0 -14 2 -19 5 -12 2 6 2 18 0 25 -3 6 -5 1 -5 -13z"/>
<path id="drawingPath" id="drawingPath" d="M1264 1925 c24 -18 31 -49 10 -41 -42 17 -45 15 -9 -7 22 -14 49 -33
60 -42 19 -16 19 -16 -5 -3 -14 8 -33 17 -43 21 -30 11 -1 -30 33 -48 17 -9
31 -21 31 -28 1 -6 5 2 9 18 l8 30 1 -27 c0 -15 6 -30 11 -33 6 -4 8 -16 4
-27 -10 -32 13 -13 36 30 15 27 19 30 15 12 -6 -25 -6 -25 11 -5 18 23 17 16
-11 -37 -10 -21 -16 -41 -12 -44 12 -12 142 -16 170 -5 20 8 27 17 27 36 0 18
4 24 13 20 6 -4 -1 6 -18 21 l-30 27 30 -18 c46 -27 72 -54 90 -91 9 -19 20
-32 25 -29 4 3 11 -1 13 -7 3 -8 6 -6 6 5 1 21 -28 81 -36 74 -2 -3 0 -14 6
-25 19 -36 12 -38 -9 -4 -56 91 -148 135 -211 102 -15 -9 -36 -4 -97 23 -42
18 -76 38 -75 45 2 6 -3 9 -10 6 -8 -3 -14 2 -14 11 0 11 6 14 16 9 9 -3 39
-12 66 -18 28 -7 60 -18 73 -25 16 -9 27 -9 40 -1 13 9 13 10 1 7 -9 -3 -42 8
-75 24 -32 16 -67 29 -77 29 -10 0 -34 7 -55 15 -33 13 -35 13 -18 0z"/>
<path id="drawingPath" id="drawingPath" d="M663 1911 c-36 -23 -49 -52 -33 -81 13 -25 22 -26 18 -2 -2 9 4 18
12 18 8 1 23 2 32 3 23 1 58 40 58 63 0 25 -45 24 -87 -1z"/>
<path id="drawingPath" id="drawingPath" d="M592 1849 c-1 -25 5 -44 19 -60 l21 -24 -15 26 c-9 14 -17 41 -20 60
l-4 34 -1 -36z"/>
<path id="drawingPath" id="drawingPath" d="M837 1848 c-4 -14 -9 -34 -13 -45 -3 -10 2 -5 11 10 9 16 15 36 13
45 -3 12 -6 9 -11 -10z"/>
<path id="drawingPath" d="M740 1838 c0 -15 5 -30 10 -33 13 -8 13 25 0 45 -8 12 -10 9 -10 -12z"/>
<path id="drawingPath" d="M713 1822 c-8 -5 -7 -11 3 -19 15 -14 27 -3 16 14 -4 7 -13 9 -19 5z"/>
<path id="drawingPath" d="M552 1735 c0 -73 13 -201 17 -165 1 8 5 43 10 76 7 50 6 71 -9 115
l-19 54 1 -80z"/>
<path id="drawingPath" d="M690 1786 c0 -2 8 -10 18 -17 15 -13 16 -12 3 4 -13 16 -21 21 -21
13z"/>
<path id="drawingPath" d="M390 1725 c14 -8 30 -14 35 -14 6 0 -1 6 -15 14 -14 8 -29 14 -35 14
-5 0 1 -6 15 -14z"/>
<path id="drawingPath" d="M1397 1733 c-4 -3 -7 -13 -7 -22 1 -13 3 -13 11 2 11 19 8 33 -4 20z"/>
<path id="drawingPath" d="M447 1699 c7 -7 15 -10 18 -7 3 3 -2 9 -12 12 -14 6 -15 5 -6 -5z"/>
<path id="drawingPath" d="M2050 1663 c-21 -8 -50 -34 -50 -46 0 -6 10 -1 23 11 13 12 28 22 35
22 6 0 14 5 17 10 7 11 -1 12 -25 3z"/>
<path id="drawingPath" d="M685 1640 c10 -11 19 -19 19 -18 1 2 8 11 15 21 12 15 10 17 -19 17
-32 0 -33 0 -15 -20z"/>
<path id="drawingPath" d="M1735 1570 c-3 -5 2 -10 12 -11 14 0 14 -2 -4 -9 -13 -5 -23 -18 -23
-29 0 -24 48 -64 64 -54 6 4 14 8 19 8 4 0 7 5 8 10 0 6 5 15 10 21 6 8 -2 22
-26 43 -38 33 -50 37 -60 21z"/>
<path id="drawingPath" d="M1820 1545 c7 -8 20 -15 28 -15 13 0 12 3 -4 15 -25 19 -40 19 -24 0z"/>
<path id="drawingPath" d="M1580 1469 c0 -5 5 -7 10 -4 6 3 10 8 10 11 0 2 -4 4 -10 4 -5 0 -10
-5 -10 -11z"/>
<path id="drawingPath" d="M551 1444 c0 -11 3 -14 6 -6 3 7 2 16 -1 19 -3 4 -6 -2 -5 -13z"/>
<path id="drawingPath" d="M2048 1380 c3 -25 -4 -54 -19 -86 -32 -69 -33 -73 -9 -36 21 31 23
32 37 15 8 -10 11 -11 7 -3 -4 8 -7 42 -6 76 2 35 -1 65 -5 67 -5 3 -7 -12 -5
-33z"/>
<path id="drawingPath" d="M1870 1357 c8 -9 140 -67 140 -62 0 6 -89 51 -120 60 -14 4 -23 5
-20 2z"/>
<path id="drawingPath" d="M2 679 l3 -494 28 -56 c15 -31 27 -72 27 -92 l0 -37 501 0 501 0 -17
28 c-117 182 -284 373 -404 460 -51 38 -69 59 -92 106 -16 33 -26 62 -24 64
19 19 275 -219 384 -358 66 -83 149 -202 187 -267 14 -25 25 -33 46 -33 15 0
28 4 28 8 0 12 -129 217 -180 287 -24 33 -83 101 -131 150 -47 50 -101 107
-120 129 -18 21 -56 56 -85 76 -55 41 -87 70 -82 76 2 1 30 -10 63 -26 33 -16
66 -30 73 -30 29 0 8 38 -43 78 -59 46 -171 169 -222 243 -35 51 -102 115
-153 146 -29 17 -58 23 -163 29 l-128 7 3 -494z m299 306 c13 -14 40 -33 59
-41 54 -23 128 -76 133 -96 3 -10 15 -19 26 -19 12 -1 25 -2 31 -3 13 -2 161
-128 156 -134 -10 -9 -220 105 -258 140 -23 21 -45 35 -49 32 -10 -6 -65 21
-75 38 -4 6 9 1 30 -11 69 -43 48 -13 -23 33 -49 32 -71 52 -71 66 0 27 13 25
41 -5z m249 -146 c0 -14 -4 -11 -41 28 l-34 36 38 -28 c20 -15 37 -31 37 -36z"/>
<path id="drawingPath" d="M1823 1143 c9 -2 25 -2 35 0 9 3 1 5 -18 5 -19 0 -27 -2 -17 -5z"/>
<path id="drawingPath" d="M2113 1033 c9 -2 25 -2 35 0 9 3 1 5 -18 5 -19 0 -27 -2 -17 -5z"/>
<path id="drawingPath" d="M2138 963 c12 -2 30 -2 40 0 9 3 -1 5 -23 4 -22 0 -30 -2 -17 -4z"/>
<path id="drawingPath" d="M530 957 c0 -2 15 -16 33 -33 l32 -29 -29 33 c-28 30 -36 37 -36 29z"/>
<path id="drawingPath" d="M2068 953 c6 -2 18 -2 25 0 6 3 1 5 -13 5 -14 0 -19 -2 -12 -5z"/>
<path id="drawingPath" d="M1838 943 c23 -2 59 -2 80 0 20 2 1 4 -43 4 -44 0 -61 -2 -37 -4z"/>
<path id="drawingPath" d="M1848 893 c12 -2 30 -2 40 0 9 3 -1 5 -23 4 -22 0 -30 -2 -17 -4z"/>
<path id="drawingPath" d="M1673 823 c9 -2 23 -2 30 0 6 3 -1 5 -18 5 -16 0 -22 -2 -12 -5z"/>
<path id="drawingPath" d="M2385 810 c-45 -6 -42 -7 33 -8 53 -1 81 2 77 8 -7 11 -31 11 -110 0z"/>
<path id="drawingPath" d="M2125 800 c-4 -6 11 -10 37 -9 36 1 39 2 18 9 -36 11 -48 11 -55 0z"/>
<path id="drawingPath" d="M2238 803 c12 -2 30 -2 40 0 9 3 -1 5 -23 4 -22 0 -30 -2 -17 -4z"/>
<path id="drawingPath" d="M749 720 c33 -41 77 -91 97 -110 l38 -35 -41 50 c-23 28 -67 77 -98
110 l-57 60 61 -75z"/>
<path id="drawingPath" d="M1633 773 c9 -2 25 -2 35 0 9 3 1 5 -18 5 -19 0 -27 -2 -17 -5z"/>
<path id="drawingPath" d="M2330 760 c-102 -4 -365 -13 -585 -20 -220 -6 -428 -15 -462 -19 -40
-5 -63 -4 -63 2 0 6 -2 8 -5 5 -7 -7 44 -166 55 -173 5 -3 -1 24 -13 61 -19
57 -20 66 -7 75 12 9 12 10 -2 5 -10 -3 -18 -2 -18 3 0 11 158 21 284 19 62
-1 80 -3 46 -5 -38 -3 -50 -7 -40 -13 10 -7 11 -10 3 -10 -7 0 1 -13 18 -29
28 -27 29 -30 11 -36 -16 -5 -19 -11 -13 -33 7 -26 11 -27 82 -33 l74 -5 -90
-4 -90 -3 85 -6 c47 -3 242 -5 434 -4 191 1 358 -2 370 -6 19 -8 21 -14 18
-77 -2 -38 -8 -73 -13 -79 -5 -5 -9 -24 -9 -42 0 -28 -4 -33 -22 -33 -13 1
-40 7 -60 14 -45 16 -49 12 -10 -8 35 -18 166 -20 180 -3 6 7 15 30 21 52 6
22 18 51 28 65 10 14 18 44 18 66 l1 42 -70 7 c-39 3 -87 10 -106 15 -31 7
-32 8 -8 9 15 1 33 9 40 19 7 9 27 19 43 21 17 1 33 8 37 14 3 6 20 10 37 10
l31 0 0 74 c0 70 -1 73 -22 71 -13 0 -106 -4 -208 -8z m-472 -207 c-10 -2 -26
-2 -35 0 -10 3 -2 5 17 5 19 0 27 -2 18 -5z m130 0 c-10 -2 -26 -2 -35 0 -10
3 -2 5 17 5 19 0 27 -2 18 -5z"/>
<path id="drawingPath" d="M1257 659 c4 -13 8 -18 11 -10 2 7 -1 18 -6 23 -8 8 -9 4 -5 -13z"/>
<path id="drawingPath" d="M1190 477 c0 -20 14 -78 31 -129 32 -97 32 -109 13 -295 l-5 -53 37
0 37 0 -6 113 c-8 142 -38 266 -87 363 l-20 38 0 -37z m49 -122 c0 -5 -4 -3
-9 5 -5 8 -9 22 -9 30 0 16 17 -16 18 -35z"/>
<path id="drawingPath" d="M1628 478 c12 -6 23 -20 23 -32 1 -17 2 -18 6 -3 3 11 14 17 31 17
23 1 22 3 -13 15 -47 17 -81 19 -47 3z"/>
<path id="drawingPath" d="M1861 290 c-16 -100 -19 -146 -12 -148 6 -2 9 -8 5 -13 -3 -5 10 -9
28 -10 86 -2 199 -9 256 -14 37 -3 61 -2 58 3 -3 5 -29 12 -58 14 -29 3 -54
11 -56 17 -2 6 -22 11 -45 10 l-42 -1 40 -14 c22 -7 29 -12 15 -9 -14 3 -54 6
-90 7 -38 1 -50 3 -29 5 l35 4 -39 42 c-22 23 -43 41 -48 40 -5 -2 -9 9 -8 25
0 35 16 113 18 88 0 -11 3 -17 5 -15 3 2 1 29 -3 59 -6 54 -7 52 -30 -90z"/>
<path id="drawingPath" d="M2010 410 c14 -11 28 -20 33 -20 4 0 6 -6 5 -12 -2 -7 7 -14 20 -16
12 -2 22 -9 22 -16 0 -8 7 -19 15 -26 8 -7 12 -16 9 -21 -3 -5 8 -9 25 -9 20
0 35 -8 45 -22 11 -15 16 -18 16 -8 0 9 3 11 8 5 4 -5 24 -10 44 -10 50 0 53
19 5 23 -27 2 -37 7 -33 17 7 18 -17 36 -99 74 -38 18 -82 39 -97 47 -37 20
-47 17 -18 -6z"/>
<path id="drawingPath" d="M1276 361 c30 -75 60 -202 70 -294 l6 -67 140 0 139 0 -33 62 c-19
35 -40 62 -47 60 -7 -1 -10 2 -7 7 7 10 -51 67 -150 149 -33 27 -79 71 -102
97 l-42 47 26 -61z m79 -68 c41 -39 48 -48 21 -29 -27 20 -40 25 -45 17 -5 -7
-14 4 -24 29 -8 22 -15 40 -13 40 1 0 28 -26 61 -57z"/>
<path id="drawingPath" d="M1542 350 c0 -14 2 -19 5 -12 2 6 2 18 0 25 -3 6 -5 1 -5 -13z"/>
<path id="drawingPath" d="M1880 260 c0 -5 5 -10 11 -10 5 0 7 5 4 10 -3 6 -8 10 -11 10 -2 0
-4 -4 -4 -10z"/>
<path id="drawingPath" d="M2395 260 c-8 -13 25 -13 45 0 12 8 9 10 -12 10 -15 0 -30 -4 -33
-10z"/>
<path id="drawingPath" d="M1475 230 c10 -11 20 -20 23 -20 3 0 -3 9 -13 20 -10 11 -20 20 -23
20 -3 0 3 -9 13 -20z"/>
<path id="drawingPath" d="M2220 145 c0 -11 11 -15 38 -15 l37 1 -34 14 c-41 18 -41 18 -41 0z"/>
<path id="drawingPath" d="M2407 140 c-16 -19 -16 -20 19 -20 29 0 35 3 30 16 -3 9 -6 18 -6 20
0 12 -28 1 -43 -16z"/>
<path id="drawingPath" d="M2207 120 c9 -9 66 -17 180 -25 93 -6 170 -10 172 -8 13 9 -18 16
-96 19 -126 5 -231 14 -251 21 -14 5 -15 3 -5 -7z"/>
<path id="drawingPath" d="M0 23 c0 -21 3 -24 9 -14 5 8 7 20 4 28 -8 21 -13 15 -13 -14z"/>
</g>
</svg>
